<svg width="3492" height="1940" viewBox="0 0 3492 1940" fill="none" xmlns="http://www.w3.org/2000/svg">
<rect y="1552" width="388" height="388" fill="#CB904C"/>
<rect y="776.002" width="388" height="388" fill="#CB904C"/>
<rect x="776.001" y="1552" width="388" height="388" fill="#CB904C"/>
<rect x="776.001" y="1164" width="388" height="388" fill="#CB904C"/>
<rect x="776.001" y="776.002" width="388" height="388" fill="#CB904C"/>
<rect x="776.001" y="388.001" width="388" height="388" fill="#634728"/>
<rect x="2328" y="388.001" width="388" height="388" fill="#634728"/>
<rect x="1940" y="388.001" width="388" height="388" fill="#CB904C"/>
<rect x="2328" width="388" height="388" fill="#CB904C"/>
<rect x="776.001" width="388" height="388" fill="#CB904C"/>
<rect x="1164" y="388.001" width="388" height="388" fill="#CB904C"/>
<rect x="2328" y="1164" width="388" height="388" fill="#CB904C"/>
<rect x="1940" y="1164" width="388" height="388" fill="#1A1A1A"/>
<rect x="1164" y="1164" width="388" height="388" fill="#1A1A1A"/>
<rect x="3104" y="1552" width="388" height="388" fill="#CB904C"/>
<rect x="3104" y="776.002" width="388" height="388" fill="#CB904C"/>
<rect x="2716" y="1164" width="388" height="388" fill="#CB904C"/>
<rect x="2328" y="1552" width="388" height="388" fill="#CB904C"/>
<rect x="1940" y="1552" width="388" height="388" fill="#CB904C"/>
<rect x="1164" y="1552" width="388" height="388" fill="#CB904C"/>
<rect x="1552" y="1552" width="388" height="388" fill="#CB904C"/>
<rect x="1552" y="1164" width="388" height="388" fill="#CB904C"/>
<rect x="2328" y="776.002" width="388" height="388" fill="#CB904C"/>
<rect x="1940" y="776.002" width="388" height="388" fill="#CB904C"/>
<rect x="1552" y="776.002" width="388" height="388" fill="#CB904C"/>
<rect x="1164" y="776.002" width="388" height="388" fill="#CB904C"/>
<rect x="388" y="1164" width="388" height="388" fill="#CB904C"/>
</svg>
